<?xml version="1.0" encoding="utf-8"?>
<!-- Generator: Adobe Illustrator 16.0.0, SVG Export Plug-In . SVG Version: 6.00 Build 0)  -->
<!DOCTYPE svg PUBLIC "-//W3C//DTD SVG 1.1//EN" "http://www.w3.org/Graphics/SVG/1.1/DTD/svg11.dtd">
<svg version="1.1" id="Layer_1" xmlns="http://www.w3.org/2000/svg" xmlns:xlink="http://www.w3.org/1999/xlink" x="0px" y="0px"
	 width="767.631px" height="109.161px" viewBox="0 0 767.631 109.161" enable-background="new 0 0 767.631 109.161"
	 xml:space="preserve">
<g>
	<g>
		<path fill="#FFFFFF" d="M28.45,70.335c-8.718,0-15.697-2.017-20.741-5.994C2.594,60.309,0,54.699,0,47.67v-1h14.789l0.122,0.86
			c0.39,2.758,1.146,4.822,2.244,6.134c2.032,2.416,5.655,3.641,10.765,3.641c3.134,0,5.696-0.336,7.615-1
			c3.441-1.201,5.115-3.351,5.115-6.569c0-1.784-0.772-3.13-2.362-4.116c-1.777-1.073-4.7-2.052-8.676-2.904l-7.018-1.54
			c-7.087-1.566-11.849-3.241-14.561-5.121c-4.628-3.168-6.978-8.163-6.978-14.84c0-6.069,2.267-11.184,6.737-15.202
			C12.232,2.023,18.789,0,27.279,0c7.096,0,13.246,1.892,18.279,5.624c5.112,3.792,7.83,9.351,8.078,16.523l0.036,1.035H38.688
			l-0.058-0.938c-0.219-3.547-1.75-5.993-4.68-7.475c-2.01-1.007-4.572-1.518-7.612-1.518c-3.358,0-6.053,0.654-8.01,1.944
			c-1.85,1.219-2.749,2.873-2.749,5.054c0,1.936,0.861,3.345,2.631,4.307c1.275,0.719,4.081,1.586,8.355,2.585l11.37,2.681
			c5.101,1.2,9.001,2.845,11.593,4.89c4.096,3.232,6.172,7.947,6.172,14.013c0,6.196-2.427,11.412-7.213,15.504
			C43.748,68.28,37.006,70.335,28.45,70.335z M2.019,48.67c0.225,5.987,2.498,10.607,6.929,14.101
			c4.683,3.692,11.244,5.564,19.502,5.564c8.066,0,14.371-1.893,18.738-5.627c4.382-3.747,6.513-8.32,6.513-13.983
			c0-5.499-1.77-9.569-5.412-12.442c-2.36-1.863-5.999-3.381-10.812-4.514l-11.368-2.681c-4.52-1.057-7.421-1.967-8.867-2.783
			c-2.426-1.318-3.663-3.358-3.663-6.057c0-2.866,1.227-5.127,3.648-6.724c2.289-1.509,5.354-2.274,9.111-2.274
			c3.354,0,6.218,0.583,8.512,1.732c3.304,1.671,5.213,4.427,5.689,8.2h11.043c-0.432-6.104-2.799-10.675-7.216-13.951
			C39.686,3.76,33.937,2,27.279,2c-7.981,0-14.088,1.851-18.15,5.5c-4.087,3.673-6.074,8.159-6.074,13.714
			c0,6.062,2,10.378,6.113,13.193c2.464,1.708,7.124,3.327,13.856,4.814l7.012,1.538c4.249,0.91,7.291,1.941,9.296,3.153
			c2.205,1.367,3.318,3.324,3.318,5.822c0,4.117-2.173,6.962-6.459,8.459c-2.132,0.737-4.914,1.11-8.271,1.11
			c-5.728,0-9.865-1.465-12.297-4.355c-1.218-1.455-2.076-3.564-2.556-6.28H2.019z"/>
	</g>
	<g>
		<path fill="#FFFFFF" d="M77.74,69.35c-5.475,0-9.208-1.115-11.412-3.409c-1.583-1.615-2.388-4.083-2.388-7.329V30.125h-6.68
			V19.204h6.68V5.845h14.393v13.359h7.778v10.921h-7.778v24.312c0,2.493,0.425,2.934,0.443,2.952
			c0.051,0.04,0.648,0.443,3.874,0.443c0.369,0,0.761-0.007,1.173-0.021c0.413-0.014,0.818-0.036,1.217-0.064l1.071-0.076v11.398
			l-6.896,0.255C78.709,69.341,78.218,69.35,77.74,69.35z M59.261,28.125h6.68v30.487c0,2.704,0.614,4.701,1.824,5.936
			c1.957,2.037,5.799,2.974,11.38,2.776l4.967-0.184v-7.339c-0.072,0.003-0.145,0.006-0.218,0.008
			c-0.437,0.016-0.852,0.022-1.243,0.022c-3.727,0-4.753-0.509-5.267-1.007c-0.727-0.705-1.051-2.058-1.051-4.387V28.125h7.778
			v-6.921h-7.778V7.845H65.94v13.359h-6.68V28.125z"/>
	</g>
	<g>
		<path fill="#FFFFFF" d="M114.906,70.291c-6.58,0-12.467-2.058-17.5-6.115c-5.097-4.109-7.682-10.823-7.682-19.956
			c0-8.533,2.318-15.192,6.889-19.793c4.573-4.603,10.575-6.937,17.838-6.937c4.291,0,8.218,0.785,11.674,2.332
			c3.5,1.568,6.426,4.071,8.698,7.44c2.033,2.95,3.373,6.42,3.976,10.308c0.344,2.246,0.486,5.5,0.424,9.675l-0.015,0.985h-34.806
			c0.357,3.925,1.824,6.631,4.466,8.255c1.749,1.099,3.894,1.654,6.381,1.654c2.603,0,4.729-0.663,6.32-1.97
			c0.868-0.707,1.65-1.712,2.329-2.992l0.282-0.532h14.514l-0.132,1.118c-0.361,3.046-2.013,6.15-4.908,9.225
			C129.194,67.832,122.884,70.291,114.906,70.291z M114.452,19.49c-6.711,0-12.236,2.135-16.419,6.347
			c-4.186,4.212-6.308,10.397-6.308,18.383c0,8.498,2.334,14.688,6.937,18.399c4.668,3.764,10.133,5.672,16.245,5.672
			c7.396,0,13.211-2.242,17.286-6.665c2.233-2.372,3.635-4.713,4.184-6.979h-11.003c-0.739,1.271-1.59,2.303-2.535,3.072
			c-1.955,1.605-4.508,2.421-7.586,2.421c-2.87,0-5.373-0.658-7.438-1.955c-3.423-2.104-5.269-5.778-5.476-10.914l-0.042-1.041
			h34.94c0.026-3.589-0.113-6.397-0.412-8.355c-0.556-3.586-1.785-6.778-3.651-9.486c-2.066-3.063-4.709-5.328-7.863-6.741
			C122.111,20.216,118.458,19.49,114.452,19.49z M126.292,39.969h-23.804l0.167-1.144c0.483-3.316,1.698-5.997,3.608-7.967
			c1.957-2.018,4.714-3.041,8.194-3.041c3.188,0,5.907,0.951,8.081,2.825c2.197,1.894,3.436,4.672,3.681,8.258L126.292,39.969z
			 M104.839,37.969h19.276c-0.348-2.536-1.296-4.444-2.883-5.812c-1.826-1.575-4.042-2.34-6.775-2.34
			c-2.959,0-5.17,0.796-6.758,2.433C106.305,33.687,105.346,35.607,104.839,37.969z"/>
	</g>
	<g>
		<path fill="#FFFFFF" d="M194.527,68.665h-14.435l-6.713-31.169l-6.791,31.169h-14.571l-14.009-49.9h15.573l6.625,30.479
			l6.119-30.479h14.33l6.496,30.719l6.652-30.719h15.189L194.527,68.665z M181.708,66.665h11.317l13.307-45.9h-10.914l-7.3,33.708
			l-1.956-0.004l-7.127-33.704h-11.07l-6.738,33.562l-1.958,0.016l-7.3-33.578h-11.322l12.886,45.9h11.444l7.431-34.105l1.955,0.002
			L181.708,66.665z"/>
	</g>
	<g>
		<path fill="#FFFFFF" d="M225.483,70.159c-4.589,0-8.446-1.332-11.464-3.959c-3.058-2.662-4.609-6.457-4.609-11.279
			c0-6.245,2.477-10.839,7.362-13.654c2.616-1.497,6.465-2.573,11.442-3.202l4.298-0.528c2.22-0.278,3.81-0.623,4.723-1.022
			c1.885-0.798,2.102-1.891,2.102-2.644c0-2.104-0.883-2.826-1.548-3.186c-1.227-0.664-3.112-1-5.604-1
			c-2.679,0-4.566,0.621-5.609,1.846c-0.761,0.927-1.289,2.245-1.556,3.905l-0.135,0.841h-14.002l0.067-1.063
			c0.276-4.373,1.534-8.032,3.738-10.877c3.514-4.458,9.54-6.715,17.916-6.715c5.401,0,10.275,1.086,14.488,3.229
			c4.434,2.256,6.681,6.518,6.681,12.669v21.973c0,1.525,0.029,3.379,0.087,5.51c0.104,1.938,0.431,2.6,0.566,2.793
			c0.307,0.438,0.793,0.813,1.448,1.117l0.579,0.269v3.484H241.15l-0.25-0.633c-0.404-1.026-0.689-2.009-0.846-2.921
			c-0.049-0.284-0.095-0.582-0.138-0.894c-1.433,1.314-3.02,2.48-4.737,3.478C232.322,69.331,229.062,70.159,225.483,70.159z
			 M232.185,27.686c2.868,0,5.012,0.406,6.556,1.241c1.184,0.641,2.596,2.019,2.596,4.944c0,1.405-0.574,3.323-3.311,4.48
			c-1.093,0.479-2.819,0.863-5.267,1.17l-4.297,0.528c-4.711,0.595-8.31,1.588-10.693,2.952c-4.278,2.465-6.358,6.365-6.358,11.92
			c0,4.277,1.283,7.474,3.922,9.771c2.643,2.301,6.058,3.468,10.15,3.468c3.226,0,6.152-0.739,8.697-2.197
			c2.167-1.259,4.112-2.809,5.775-4.603l1.546-1.667l0.184,2.266c0.085,1.055,0.2,2,0.34,2.811c0.102,0.593,0.271,1.229,0.501,1.895
			h11.927v-0.239c-0.702-0.407-1.26-0.905-1.665-1.483c-0.531-0.758-0.826-1.985-0.926-3.859c-0.06-2.176-0.089-4.048-0.089-5.591
			V33.52c0-5.412-1.828-8.973-5.588-10.886c-3.929-1.998-8.499-3.011-13.582-3.011c-7.732,0-13.229,2.001-16.339,5.947
			c-1.773,2.288-2.858,5.215-3.229,8.708h10.17c0.363-1.634,0.979-2.986,1.836-4.03C226.494,28.543,228.893,27.686,232.185,27.686z
			 M229.137,61.062c-1.948,0-3.636-0.553-5.016-1.644c-1.451-1.146-2.187-2.97-2.187-5.421c0-2.774,1.164-4.854,3.458-6.183
			c1.279-0.74,3.27-1.34,6.085-1.833l2.841-0.526c1.36-0.251,2.435-0.524,3.193-0.81c0.754-0.284,1.512-0.661,2.253-1.122
			l1.528-0.95v6.457c-0.096,4.532-1.451,7.715-4.026,9.482C234.801,60.205,232.066,61.062,229.137,61.062z M239.292,46.06
			c-0.357,0.17-0.716,0.323-1.076,0.458c-0.881,0.332-2.037,0.628-3.534,0.905l-2.85,0.527c-2.554,0.448-4.38,0.984-5.438,1.596
			c-1.655,0.958-2.459,2.415-2.459,4.452c0,1.833,0.467,3.093,1.427,3.852c1.033,0.816,2.268,1.213,3.776,1.213
			c2.518,0,4.872-0.739,6.997-2.198c2.014-1.381,3.077-4.024,3.158-7.854V46.06z"/>
	</g>
	<g>
		<path fill="#FFFFFF" d="M276.746,68.665h-14.612v-49.9h13.953v5.963c1.248-1.785,2.377-3.083,3.421-3.936
			c2.509-2.1,5.8-3.169,9.773-3.169c0.27,0,0.498,0.009,0.684,0.026c0.158,0.015,0.503,0.036,1.038,0.063l0.948,0.049v14.899
			l-1.11-0.124c-0.767-0.085-1.455-0.143-2.046-0.17c-0.595-0.028-1.078-0.043-1.447-0.043c-4.68,0-7.711,1.436-9.267,4.388
			c-0.885,1.69-1.335,4.402-1.335,8.059V68.665z M264.134,66.665h10.612V44.77c0-4.04,0.512-6.98,1.564-8.989
			c1.908-3.623,5.622-5.458,11.037-5.458c0.392,0,0.906,0.015,1.541,0.045c0.329,0.016,0.684,0.04,1.062,0.072V19.653
			c-0.071-0.005-0.127-0.01-0.17-0.014c-0.133-0.012-0.301-0.018-0.5-0.018c-3.491,0-6.35,0.912-8.499,2.711
			c-1.349,1.102-2.975,3.218-4.84,6.299l-1.855,3.063V20.765h-9.953V66.665z"/>
	</g>
	<g>
		<path fill="#FFFFFF" d="M315.998,69.35c-5.475,0-9.208-1.115-11.412-3.409c-1.583-1.615-2.388-4.083-2.388-7.329V30.125h-6.68
			V19.204h6.68V5.845h14.393v13.359h7.778v10.921h-7.778v24.312c0,2.493,0.425,2.934,0.443,2.952
			c0.051,0.04,0.648,0.443,3.874,0.443c0.37,0,0.76-0.007,1.173-0.021c0.413-0.014,0.818-0.036,1.216-0.064l1.071-0.076v11.398
			l-6.896,0.255C316.966,69.341,316.475,69.35,315.998,69.35z M297.518,28.125h6.68v30.487c0,2.704,0.614,4.701,1.824,5.936
			c1.957,2.037,5.8,2.974,11.38,2.776l4.967-0.184v-7.339c-0.072,0.003-0.145,0.006-0.217,0.008
			c-0.438,0.016-0.852,0.022-1.244,0.022c-3.727,0-4.753-0.509-5.267-1.007c-0.727-0.706-1.051-2.059-1.051-4.387V28.125h7.778
			v-6.921h-7.778V7.845h-10.393v13.359h-6.68V28.125z"/>
	</g>
	<g>
		<path fill="#FFFFFF" d="M376.592,70.291c-6.884,0-12.357-2.055-16.267-6.107c-3.899-4.042-5.877-8.608-5.877-13.573
			c0-4.087,1.036-7.65,3.079-10.591c2.003-2.884,5.295-5.758,9.787-8.543l0.367-0.225c-1.565-1.894-2.82-3.843-3.734-5.806
			c-1.083-2.323-1.632-4.775-1.632-7.288c0-5.013,1.738-8.996,5.165-11.837c3.372-2.795,7.777-4.212,13.091-4.212
			c4.886,0,8.992,1.458,12.207,4.332c3.246,2.904,4.892,6.663,4.892,11.171c0,4.028-0.989,7.361-2.939,9.909
			c-1.713,2.238-4.167,4.344-7.303,6.268l7.696,9.333c0.668-1.126,1.21-2.326,1.616-3.582c0.544-1.682,0.835-3.491,0.863-5.375
			l0.015-0.985h13.157l-0.055,1.052c-0.211,4.034-1.195,8.167-2.927,12.281c-0.889,2.149-2.301,4.528-4.201,7.075l12.62,15.078
			h-17.774l-4.14-5.041c-1.962,1.734-3.831,3.061-5.567,3.951C385.229,69.377,381.144,70.291,376.592,70.291z M380.571,4.109
			c-4.836,0-8.811,1.263-11.815,3.752c-2.988,2.478-4.441,5.846-4.441,10.297c0,2.218,0.486,4.386,1.444,6.443
			c0.979,2.102,2.39,4.196,4.192,6.227l0.792,0.893l-2.38,1.458c-4.252,2.637-7.347,5.323-9.193,7.981
			c-1.806,2.6-2.722,5.779-2.722,9.45c0,4.429,1.789,8.528,5.316,12.184c3.518,3.646,8.507,5.496,14.827,5.496
			c4.23,0,8.007-0.84,11.225-2.496c1.806-0.925,3.793-2.389,5.908-4.351l0.778-0.722l4.88,5.942h12.548l-10.899-13.021l0.49-0.636
			c2.039-2.649,3.527-5.094,4.426-7.265c1.492-3.548,2.399-7.094,2.701-10.564h-9.083c-0.104,1.731-0.414,3.401-0.924,4.977
			c-0.605,1.87-1.48,3.63-2.602,5.23l-0.755,1.076l-10.896-13.213l1.026-0.59c3.395-1.953,5.994-4.09,7.727-6.354
			c1.677-2.19,2.527-5.115,2.527-8.693c0-3.97-1.382-7.136-4.226-9.68C388.608,5.396,384.95,4.109,380.571,4.109z M377.409,59.788
			c-3.036,0-5.569-1.002-7.529-2.98c-1.958-1.975-2.951-4.195-2.951-6.6c0-2.095,0.57-4.039,1.694-5.779
			c1.108-1.717,3.261-3.612,6.583-5.794l0.751-0.493l13.265,16.151l-0.644,0.641c-1.232,1.228-2.845,2.349-4.793,3.334
			C381.79,59.277,379.645,59.788,377.409,59.788z M375.558,40.806c-2.627,1.792-4.393,3.373-5.254,4.708
			c-0.925,1.432-1.375,2.967-1.375,4.694c0,1.884,0.776,3.583,2.371,5.192c1.593,1.607,3.591,2.388,6.108,2.388
			c1.919,0,3.762-0.439,5.475-1.305c1.421-0.718,2.634-1.507,3.618-2.352L375.558,40.806z M379.473,27.277l-0.58-0.69
			c-1.868-2.226-3.055-3.743-3.63-4.638c-0.95-1.441-1.435-2.871-1.435-4.24c0-2.333,0.93-4.074,2.765-5.173
			c1.147-0.706,2.412-1.067,3.75-1.067c2.148,0,3.798,0.65,4.904,1.933c1.068,1.238,1.61,2.672,1.61,4.263
			c0,2.108-0.86,4.075-2.558,5.845c-0.84,0.905-2.179,1.976-4.082,3.263L379.473,27.277z M380.344,13.47
			c-0.976,0-1.863,0.254-2.712,0.776c-1.234,0.739-1.804,1.838-1.804,3.464c0,0.971,0.374,2.03,1.111,3.149
			c0.468,0.729,1.442,1.984,2.903,3.745c1.368-0.962,2.376-1.79,3.003-2.465c1.357-1.417,2.012-2.875,2.012-4.473
			c0-1.113-0.368-2.08-1.125-2.957C383.015,13.875,381.906,13.47,380.344,13.47z"/>
	</g>
	<g>
		<path fill="#FFFFFF" d="M471.712,70.335c-8.718,0-15.696-2.017-20.741-5.994c-5.115-4.033-7.709-9.642-7.709-16.671v-1h14.788
			l0.122,0.86c0.391,2.758,1.146,4.822,2.244,6.134c2.032,2.416,5.654,3.641,10.765,3.641c3.134,0,5.696-0.336,7.615-1
			c3.441-1.201,5.115-3.351,5.115-6.569c0-1.784-0.772-3.13-2.362-4.116c-1.777-1.074-4.7-2.053-8.676-2.904l-7.018-1.54
			c-7.086-1.565-11.849-3.24-14.561-5.121c-4.629-3.168-6.979-8.163-6.979-14.84c0-6.069,2.267-11.184,6.736-15.202
			C455.495,2.023,462.051,0,470.541,0c7.096,0,13.246,1.892,18.279,5.624c5.112,3.792,7.83,9.351,8.077,16.523l0.036,1.035H481.95
			l-0.058-0.938c-0.219-3.547-1.749-5.992-4.679-7.475c-2.011-1.007-4.573-1.518-7.613-1.518c-3.358,0-6.054,0.654-8.01,1.944
			c-1.85,1.219-2.749,2.873-2.749,5.054c0,1.936,0.86,3.345,2.631,4.307c1.275,0.719,4.082,1.586,8.356,2.585l11.369,2.681
			c5.1,1.199,9,2.845,11.593,4.89c4.096,3.232,6.173,7.947,6.173,14.013c0,6.196-2.427,11.412-7.214,15.504
			C487.01,68.28,480.268,70.335,471.712,70.335z M445.281,48.67c0.225,5.987,2.498,10.607,6.929,14.101
			c4.684,3.692,11.245,5.564,19.503,5.564c8.066,0,14.37-1.893,18.738-5.627c4.382-3.747,6.513-8.32,6.513-13.983
			c0-5.499-1.771-9.569-5.411-12.442c-2.361-1.863-5.999-3.382-10.812-4.514l-11.368-2.681c-4.52-1.056-7.421-1.967-8.868-2.783
			c-2.426-1.318-3.662-3.358-3.662-6.057c0-2.866,1.228-5.127,3.647-6.724c2.289-1.509,5.354-2.274,9.111-2.274
			c3.354,0,6.218,0.583,8.513,1.732c3.303,1.671,5.212,4.427,5.688,8.2h11.044c-0.432-6.104-2.799-10.675-7.216-13.951
			C482.948,3.76,477.199,2,470.541,2c-7.981,0-14.088,1.851-18.15,5.5c-4.087,3.673-6.073,8.16-6.073,13.714
			c0,6.062,1.999,10.377,6.112,13.193c2.465,1.708,7.126,3.327,13.856,4.814l7.011,1.538c4.248,0.909,7.291,1.941,9.297,3.153
			c2.205,1.367,3.318,3.324,3.318,5.822c0,4.117-2.173,6.962-6.458,8.459c-2.134,0.737-4.916,1.11-8.272,1.11
			c-5.728,0-9.865-1.465-12.297-4.355c-1.218-1.455-2.075-3.564-2.556-6.28H445.281z"/>
	</g>
	<g>
		<path fill="#FFFFFF" d="M521.002,69.35c-5.475,0-9.208-1.115-11.411-3.409c-1.583-1.615-2.389-4.083-2.389-7.329V30.125h-6.68
			V19.204h6.68V5.845h14.393v13.359h7.778v10.921h-7.778v24.312c0,2.493,0.426,2.934,0.443,2.952
			c0.051,0.04,0.648,0.443,3.874,0.443c0.37,0,0.76-0.007,1.174-0.021c0.412-0.014,0.817-0.036,1.216-0.064l1.071-0.076v11.398
			l-6.896,0.255C521.971,69.341,521.48,69.35,521.002,69.35z M502.523,28.125h6.68v30.487c0,2.704,0.613,4.701,1.823,5.936
			c1.957,2.036,5.793,2.969,11.381,2.776l4.967-0.184v-7.339c-0.072,0.003-0.145,0.006-0.218,0.008
			c-0.437,0.016-0.852,0.022-1.243,0.022c-3.727,0-4.754-0.509-5.267-1.007c-0.727-0.706-1.051-2.059-1.051-4.387V28.125h7.778
			v-6.921h-7.778V7.845h-10.393v13.359h-6.68V28.125z"/>
	</g>
	<g>
		<path fill="#FFFFFF" d="M558.167,70.291c-6.58,0-12.468-2.058-17.5-6.115c-5.097-4.109-7.682-10.823-7.682-19.956
			c0-8.533,2.318-15.192,6.89-19.793c4.572-4.603,10.574-6.937,17.838-6.937c4.29,0,8.218,0.785,11.674,2.332
			c3.5,1.568,6.427,4.071,8.698,7.44c2.033,2.95,3.373,6.42,3.976,10.308c0.344,2.25,0.486,5.504,0.424,9.675l-0.015,0.985h-34.805
			c0.357,3.925,1.823,6.631,4.465,8.255c1.75,1.099,3.895,1.654,6.383,1.654c2.603,0,4.729-0.663,6.319-1.97
			c0.868-0.706,1.65-1.711,2.328-2.992l0.282-0.532h14.515l-0.133,1.118c-0.361,3.046-2.013,6.15-4.909,9.225
			C572.457,67.832,566.146,70.291,558.167,70.291z M557.713,19.49c-6.712,0-12.236,2.135-16.42,6.347
			c-4.186,4.212-6.308,10.397-6.308,18.383c0,8.498,2.334,14.688,6.938,18.399c4.668,3.764,10.133,5.672,16.244,5.672
			c7.396,0,13.212-2.242,17.285-6.665c2.233-2.373,3.636-4.713,4.184-6.98h-11.003c-0.739,1.272-1.59,2.303-2.535,3.072
			c-1.954,1.605-4.507,2.421-7.585,2.421c-2.87,0-5.373-0.658-7.438-1.955c-3.423-2.105-5.268-5.778-5.476-10.914l-0.042-1.041
			h34.939c0.026-3.586-0.112-6.394-0.412-8.355c-0.556-3.586-1.784-6.778-3.651-9.486c-2.065-3.063-4.709-5.328-7.863-6.741
			C565.373,20.216,561.72,19.49,557.713,19.49z M569.553,39.969H545.75l0.167-1.144c0.482-3.315,1.696-5.996,3.607-7.967
			c1.957-2.018,4.714-3.041,8.194-3.041c3.188,0,5.907,0.951,8.082,2.825c2.196,1.895,3.435,4.673,3.681,8.258L569.553,39.969z
			 M548.1,37.969h19.276c-0.348-2.535-1.296-4.443-2.883-5.812c-1.826-1.574-4.042-2.34-6.775-2.34c-2.96,0-5.171,0.796-6.759,2.433
			C549.566,33.688,548.607,35.607,548.1,37.969z"/>
	</g>
	<g>
		<path fill="#FFFFFF" d="M637.79,68.665h-14.435l-6.713-31.169l-6.791,31.169H595.28l-14.009-49.9h15.572l6.626,30.479
			l6.119-30.479h14.33l6.496,30.719l6.652-30.719h15.189L637.79,68.665z M624.97,66.665h11.317l13.307-45.9H638.68l-7.3,33.708
			l-1.956-0.004l-7.127-33.704h-11.07l-6.738,33.562l-1.958,0.016l-7.299-33.578H583.91l12.886,45.9h11.444l7.431-34.105
			l1.955,0.002L624.97,66.665z"/>
	</g>
	<g>
		<path fill="#FFFFFF" d="M668.745,70.159c-4.59,0-8.446-1.332-11.463-3.959c-3.059-2.661-4.609-6.456-4.609-11.279
			c0-6.245,2.477-10.838,7.362-13.654c2.617-1.497,6.466-2.573,11.442-3.202l4.297-0.528c2.222-0.278,3.812-0.623,4.724-1.022
			c1.885-0.798,2.102-1.891,2.102-2.644c0-2.105-0.883-2.826-1.547-3.186c-1.227-0.664-3.112-1-5.605-1
			c-2.68,0-4.565,0.621-5.607,1.845c-0.763,0.927-1.29,2.245-1.557,3.905l-0.136,0.841h-14.002l0.067-1.063
			c0.276-4.373,1.534-8.032,3.738-10.876c3.514-4.458,9.539-6.716,17.915-6.716c5.401,0,10.276,1.086,14.488,3.229
			c4.434,2.255,6.682,6.518,6.682,12.668v21.973c0,1.508,0.029,3.361,0.088,5.51c0.104,1.937,0.431,2.6,0.566,2.793
			c0.306,0.438,0.793,0.813,1.447,1.116l0.579,0.269v3.484h-15.304l-0.25-0.633c-0.404-1.026-0.688-2.009-0.846-2.921
			c-0.049-0.285-0.095-0.583-0.138-0.894c-1.433,1.313-3.02,2.479-4.737,3.478C675.584,69.331,672.324,70.159,668.745,70.159z
			 M675.447,27.686c2.868,0,5.014,0.406,6.557,1.241c1.185,0.641,2.596,2.018,2.596,4.944c0,1.405-0.574,3.322-3.311,4.48
			c-1.093,0.479-2.819,0.863-5.269,1.17l-4.296,0.528c-4.71,0.595-8.31,1.588-10.694,2.952c-4.276,2.465-6.357,6.365-6.357,11.92
			c0,4.278,1.283,7.474,3.922,9.771c2.643,2.301,6.058,3.468,10.15,3.468c3.227,0,6.152-0.739,8.697-2.197
			c2.169-1.261,4.114-2.81,5.775-4.602l1.546-1.668l0.185,2.267c0.085,1.049,0.199,1.995,0.34,2.812
			c0.103,0.593,0.271,1.228,0.501,1.895h11.928v-0.239c-0.702-0.407-1.261-0.905-1.665-1.483c-0.531-0.759-0.826-1.986-0.927-3.859
			c-0.06-2.193-0.089-4.065-0.089-5.591V33.52c0-5.412-1.828-8.973-5.588-10.886c-3.929-1.998-8.499-3.011-13.582-3.011
			c-7.731,0-13.229,2.001-16.34,5.947c-1.772,2.287-2.857,5.214-3.228,8.708h10.17c0.363-1.634,0.979-2.987,1.837-4.03
			C669.755,28.543,672.154,27.686,675.447,27.686z M672.399,61.062c-1.948,0-3.636-0.553-5.015-1.644
			c-1.451-1.146-2.188-2.97-2.188-5.42c0-2.773,1.163-4.854,3.458-6.183c1.279-0.74,3.27-1.34,6.085-1.833l2.842-0.526
			c1.359-0.251,2.434-0.523,3.192-0.81c0.754-0.284,1.512-0.662,2.252-1.122l1.528-0.95v6.458c-0.096,4.532-1.45,7.714-4.026,9.482
			C678.064,60.205,675.329,61.062,672.399,61.062z M682.554,46.06c-0.357,0.17-0.716,0.323-1.075,0.458
			c-0.882,0.332-2.038,0.628-3.534,0.905l-2.851,0.527c-2.554,0.448-4.38,0.984-5.438,1.596c-1.655,0.958-2.46,2.415-2.46,4.452
			c0,1.833,0.467,3.093,1.428,3.852c1.032,0.816,2.267,1.213,3.774,1.213c2.519,0,4.872-0.739,6.998-2.198
			c2.014-1.382,3.076-4.024,3.157-7.854V46.06z"/>
	</g>
	<g>
		<path fill="#FFFFFF" d="M720.008,68.665h-14.612v-49.9h13.953v5.963c1.247-1.785,2.378-3.083,3.421-3.936
			c2.509-2.1,5.801-3.169,9.773-3.169c0.271,0,0.498,0.009,0.684,0.026c0.157,0.015,0.503,0.036,1.038,0.063l0.948,0.049v14.899
			l-1.11-0.124c-0.767-0.085-1.455-0.143-2.047-0.17c-0.595-0.028-1.077-0.043-1.446-0.043c-4.68,0-7.711,1.436-9.267,4.388
			c-0.886,1.69-1.335,4.402-1.335,8.059V68.665z M707.396,66.665h10.612V44.77c0-4.04,0.512-6.98,1.564-8.989
			c1.908-3.623,5.621-5.458,11.037-5.458c0.393,0,0.906,0.015,1.541,0.045c0.329,0.016,0.684,0.04,1.062,0.072V19.653
			c-0.07-0.005-0.128-0.01-0.171-0.014c-0.134-0.012-0.301-0.018-0.499-0.018c-3.491,0-6.351,0.912-8.499,2.711
			c-1.349,1.102-2.974,3.218-4.84,6.299l-1.855,3.063V20.765h-9.953V66.665z"/>
	</g>
	<g>
		<path fill="#FFFFFF" d="M759.26,69.35c-5.475,0-9.208-1.115-11.411-3.409c-1.583-1.615-2.389-4.083-2.389-7.329V30.125h-6.68
			V19.204h6.68V5.845h14.393v13.359h7.778v10.921h-7.778v24.312c0,2.493,0.426,2.934,0.443,2.952
			c0.051,0.04,0.648,0.443,3.874,0.443c0.37,0,0.76-0.007,1.174-0.021c0.412-0.014,0.817-0.036,1.216-0.064l1.071-0.076v11.398
			l-6.896,0.255C760.229,69.341,759.738,69.35,759.26,69.35z M740.781,28.125h6.68v30.487c0,2.704,0.613,4.701,1.823,5.936
			c1.957,2.036,5.793,2.969,11.381,2.776l4.967-0.184v-7.339c-0.072,0.003-0.145,0.006-0.218,0.008
			c-0.437,0.016-0.852,0.022-1.243,0.022c-3.727,0-4.754-0.509-5.267-1.007c-0.727-0.706-1.051-2.059-1.051-4.387V28.125h7.778
			v-6.921h-7.778V7.845H747.46v13.359h-6.68V28.125z"/>
	</g>
</g>
<g>
	<path fill="#FFFFFF" d="M3.018,94.396h6.419c1.269,0,2.294,0.359,3.074,1.078c0.78,0.72,1.17,1.73,1.17,3.033
		c0,1.119-0.348,2.094-1.044,2.924s-1.762,1.246-3.197,1.246H4.961v6.064H3.018V94.396z M10.555,96.368
		c-0.427-0.202-1.012-0.303-1.755-0.303H4.961v4.971H8.8c0.866,0,1.569-0.186,2.109-0.557s0.81-1.025,0.81-1.963
		C11.719,97.462,11.331,96.745,10.555,96.368z"/>
	<path fill="#FFFFFF" d="M19.646,94.396h6.521c1.074,0,1.959,0.159,2.656,0.479c1.323,0.611,1.985,1.741,1.985,3.389
		c0,0.859-0.177,1.562-0.532,2.109s-0.851,0.986-1.489,1.318c0.56,0.228,0.981,0.527,1.265,0.898s0.441,0.973,0.474,1.807
		l0.068,1.924c0.02,0.547,0.065,0.953,0.137,1.221c0.117,0.455,0.326,0.748,0.625,0.879v0.322h-2.383
		c-0.065-0.124-0.117-0.283-0.156-0.479s-0.072-0.573-0.098-1.133l-0.117-2.393c-0.044-0.938-0.383-1.566-1.015-1.885
		c-0.361-0.176-0.927-0.264-1.699-0.264H21.59v6.152h-1.943V94.396z M25.958,100.968c0.886,0,1.587-0.183,2.104-0.547
		c0.516-0.365,0.774-1.022,0.774-1.973c0-1.022-0.361-1.719-1.083-2.09c-0.386-0.195-0.902-0.293-1.548-0.293H21.59v4.902H25.958z"
		/>
	<path fill="#FFFFFF" d="M37.535,94.396h1.963v14.346h-1.963V94.396z"/>
	<path fill="#FFFFFF" d="M45.892,94.396h2.289l7.154,11.59v-11.59h1.855v14.346h-2.183l-7.26-11.578v11.578h-1.855V94.396z"/>
	<path fill="#FFFFFF" d="M74.005,94.396v1.709h-4.834v12.637h-1.963V96.104h-4.834v-1.709H74.005z"/>
	<path fill="#FFFFFF" d="M79.218,94.396h10.41v1.758h-8.516v4.355h7.871v1.66h-7.871v4.863h8.662v1.709H79.218V94.396z"/>
	<path fill="#FFFFFF" d="M95.846,94.396h6.521c1.074,0,1.959,0.159,2.656,0.479c1.323,0.611,1.985,1.741,1.985,3.389
		c0,0.859-0.177,1.562-0.532,2.109s-0.851,0.986-1.489,1.318c0.56,0.228,0.981,0.527,1.265,0.898s0.441,0.973,0.474,1.807
		l0.068,1.924c0.02,0.547,0.065,0.953,0.137,1.221c0.117,0.455,0.326,0.748,0.625,0.879v0.322h-2.383
		c-0.065-0.124-0.117-0.283-0.156-0.479s-0.072-0.573-0.098-1.133l-0.117-2.393c-0.044-0.938-0.383-1.566-1.015-1.885
		c-0.361-0.176-0.927-0.264-1.699-0.264H97.79v6.152h-1.943V94.396z M102.158,100.968c0.886,0,1.587-0.183,2.104-0.547
		c0.516-0.365,0.774-1.022,0.774-1.973c0-1.022-0.361-1.719-1.083-2.09c-0.386-0.195-0.902-0.293-1.548-0.293H97.79v4.902H102.158z"
		/>
	<path fill="#FFFFFF" d="M125.124,94.396h1.484l-4.551,14.346h-1.484L125.124,94.396z"/>
	<path fill="#FFFFFF" d="M139.871,94.396h6.419c1.269,0,2.294,0.359,3.074,1.078c0.78,0.72,1.17,1.73,1.17,3.033
		c0,1.119-0.348,2.094-1.044,2.924s-1.762,1.246-3.197,1.246h-4.479v6.064h-1.943V94.396z M147.408,96.368
		c-0.427-0.202-1.012-0.303-1.755-0.303h-3.839v4.971h3.839c0.866,0,1.569-0.186,2.109-0.557s0.81-1.025,0.81-1.963
		C148.572,97.462,148.184,96.745,147.408,96.368z"/>
	<path fill="#FFFFFF" d="M158.365,94.396v8.867c0,1.041,0.197,1.907,0.591,2.598c0.584,1.041,1.568,1.562,2.953,1.562
		c1.66,0,2.789-0.563,3.386-1.689c0.322-0.612,0.482-1.436,0.482-2.471v-8.867h1.963v8.057c0,1.764-0.238,3.121-0.715,4.072
		c-0.875,1.731-2.528,2.598-4.958,2.598s-4.08-0.866-4.949-2.598c-0.477-0.951-0.715-2.309-0.715-4.072v-8.057H158.365z"/>
	<path fill="#FFFFFF" d="M173.899,94.396h6.203c1.691,0,2.893,0.501,3.608,1.504c0.419,0.592,0.629,1.275,0.629,2.051
		c0,0.904-0.257,1.646-0.771,2.227c-0.267,0.306-0.651,0.586-1.152,0.84c0.736,0.279,1.286,0.596,1.65,0.947
		c0.645,0.625,0.967,1.487,0.967,2.588c0,0.924-0.292,1.761-0.875,2.51c-0.871,1.119-2.257,1.68-4.156,1.68h-6.102V94.396z
		 M179.376,100.46c0.829,0,1.474-0.114,1.934-0.342c0.724-0.358,1.085-1.003,1.085-1.934c0-0.938-0.385-1.569-1.154-1.895
		c-0.435-0.183-1.079-0.273-1.935-0.273h-3.503v4.443H179.376z M180.033,107.081c1.203,0,2.061-0.346,2.573-1.035
		c0.322-0.437,0.483-0.964,0.483-1.582c0-1.042-0.47-1.752-1.41-2.129c-0.5-0.202-1.16-0.303-1.981-0.303h-3.894v5.049H180.033z"/>
	<path fill="#FFFFFF" d="M190.528,94.396h1.943v12.637h7.197v1.709h-9.141V94.396z"/>
	<path fill="#FFFFFF" d="M205.331,94.396h1.963v14.346h-1.963V94.396z"/>
	<path fill="#FFFFFF" d="M214.958,104.112c0.044,0.813,0.229,1.475,0.555,1.982c0.621,0.95,1.715,1.426,3.283,1.426
		c0.703,0,1.342-0.104,1.919-0.312c1.116-0.404,1.674-1.127,1.674-2.168c0-0.781-0.236-1.338-0.709-1.67
		c-0.479-0.326-1.23-0.609-2.251-0.85l-1.883-0.439c-1.23-0.287-2.1-0.603-2.611-0.947c-0.883-0.6-1.324-1.494-1.324-2.686
		c0-1.289,0.434-2.348,1.302-3.174c0.868-0.827,2.097-1.24,3.688-1.24c1.463,0,2.707,0.362,3.73,1.088
		c1.023,0.727,1.535,1.887,1.535,3.482h-1.826c-0.094-0.769-0.293-1.357-0.599-1.768c-0.568-0.749-1.533-1.123-2.893-1.123
		c-1.099,0-1.888,0.24-2.369,0.723c-0.48,0.481-0.721,1.041-0.721,1.68c0,0.703,0.284,1.217,0.852,1.543
		c0.372,0.208,1.214,0.469,2.526,0.781l1.949,0.459c0.94,0.221,1.666,0.523,2.176,0.908c0.883,0.67,1.325,1.644,1.325,2.92
		c0,1.588-0.563,2.725-1.69,3.408s-2.437,1.025-3.929,1.025c-1.74,0-3.102-0.456-4.085-1.367c-0.985-0.905-1.467-2.133-1.448-3.682
		H214.958z"/>
	<path fill="#FFFFFF" d="M230.316,94.396h1.963v5.928h7.373v-5.928h1.963v14.346h-1.963v-6.709h-7.373v6.709h-1.963V94.396z"/>
	<path fill="#FFFFFF" d="M248.137,94.396h10.41v1.758h-8.516v4.355h7.871v1.66h-7.871v4.863h8.662v1.709h-10.557V94.396z"/>
	<path fill="#FFFFFF" d="M264.765,94.396h6.521c1.074,0,1.959,0.159,2.656,0.479c1.323,0.611,1.985,1.741,1.985,3.389
		c0,0.859-0.177,1.562-0.532,2.109s-0.851,0.986-1.489,1.318c0.56,0.228,0.981,0.527,1.265,0.898s0.441,0.973,0.474,1.807
		l0.068,1.924c0.02,0.547,0.065,0.953,0.137,1.221c0.117,0.455,0.326,0.748,0.625,0.879v0.322h-2.383
		c-0.065-0.124-0.117-0.283-0.156-0.479s-0.072-0.573-0.098-1.133l-0.117-2.393c-0.044-0.938-0.383-1.566-1.015-1.885
		c-0.361-0.176-0.927-0.264-1.699-0.264h-4.298v6.152h-1.943V94.396z M271.077,100.968c0.886,0,1.587-0.183,2.104-0.547
		c0.516-0.365,0.774-1.022,0.774-1.973c0-1.022-0.361-1.719-1.083-2.09c-0.386-0.195-0.902-0.293-1.548-0.293h-4.615v4.902H271.077z
		"/>
	<path fill="#FFFFFF" d="M294.043,94.396h1.484l-4.551,14.346h-1.484L294.043,94.396z"/>
	<path fill="#FFFFFF" d="M308.692,94.396h5.734c1.946,0,3.456,0.699,4.529,2.1c0.957,1.263,1.436,2.881,1.436,4.854
		c0,1.523-0.283,2.9-0.848,4.131c-0.996,2.174-2.708,3.262-5.137,3.262h-5.715V94.396z M314.044,107.081
		c0.644,0,1.172-0.068,1.585-0.205c0.738-0.254,1.344-0.742,1.814-1.465c0.376-0.58,0.646-1.322,0.812-2.227
		c0.096-0.541,0.144-1.042,0.144-1.504c0-1.777-0.346-3.158-1.036-4.141c-0.69-0.983-1.803-1.475-3.337-1.475h-3.371v11.016H314.044
		z"/>
	<path fill="#FFFFFF" d="M326.473,94.396h10.41v1.758h-8.516v4.355h7.871v1.66h-7.871v4.863h8.662v1.709h-10.557V94.396z"/>
	<path fill="#FFFFFF" d="M347.054,94.396h2.193l5.207,14.346h-2.129l-1.498-4.297H345.2l-1.556,4.297h-1.992L347.054,94.396z
		 M350.277,102.862l-2.209-6.338l-2.295,6.338H350.277z"/>
	<path fill="#FFFFFF" d="M359.447,94.396h1.943v12.637h7.197v1.709h-9.141V94.396z"/>
	<path fill="#FFFFFF" d="M373.996,94.396h10.41v1.758h-8.516v4.355h7.871v1.66h-7.871v4.863h8.662v1.709h-10.557V94.396z"/>
	<path fill="#FFFFFF" d="M390.625,94.396h6.521c1.074,0,1.96,0.159,2.656,0.479c1.323,0.611,1.985,1.741,1.985,3.389
		c0,0.859-0.178,1.562-0.532,2.109s-0.852,0.986-1.489,1.318c0.56,0.228,0.981,0.527,1.265,0.898s0.441,0.973,0.474,1.807
		l0.068,1.924c0.02,0.547,0.065,0.953,0.137,1.221c0.117,0.455,0.325,0.748,0.625,0.879v0.322h-2.383
		c-0.065-0.124-0.117-0.283-0.156-0.479s-0.071-0.573-0.098-1.133l-0.117-2.393c-0.044-0.938-0.383-1.566-1.016-1.885
		c-0.36-0.176-0.927-0.264-1.698-0.264h-4.298v6.152h-1.943V94.396z M396.936,100.968c0.887,0,1.588-0.183,2.104-0.547
		c0.517-0.365,0.774-1.022,0.774-1.973c0-1.022-0.361-1.719-1.083-2.09c-0.386-0.195-0.901-0.293-1.548-0.293h-4.615v4.902H396.936z
		"/>
	<path fill="#FFFFFF" d="M428.686,96.446c0.95,1.27,1.426,2.894,1.426,4.873c0,2.142-0.544,3.922-1.631,5.342
		c-1.276,1.666-3.096,2.5-5.459,2.5c-2.207,0-3.942-0.729-5.205-2.188c-1.126-1.406-1.689-3.184-1.689-5.332
		c0-1.94,0.481-3.601,1.445-4.98c1.237-1.771,3.066-2.656,5.488-2.656C425.593,94.005,427.468,94.818,428.686,96.446z
		 M426.972,105.59c0.765-1.228,1.147-2.641,1.147-4.237c0-1.688-0.441-3.046-1.323-4.075c-0.882-1.03-2.088-1.544-3.618-1.544
		c-1.484,0-2.695,0.51-3.633,1.529s-1.406,2.523-1.406,4.51c0,1.591,0.402,2.932,1.206,4.022s2.107,1.638,3.911,1.638
		C424.968,107.433,426.208,106.817,426.972,105.59z"/>
	<path fill="#FFFFFF" d="M435.852,94.396h9.951v1.758h-8.008v4.355h7.041v1.709h-7.041v6.523h-1.943V94.396z"/>
	<path fill="#FFFFFF" d="M460.106,94.396h9.951v1.758h-8.008v4.355h7.041v1.709h-7.041v6.523h-1.943V94.396z"/>
	<path fill="#FFFFFF" d="M475.817,94.396h1.963v14.346h-1.963V94.396z"/>
	<path fill="#FFFFFF" d="M484.173,94.396h2.289l7.154,11.59v-11.59h1.855v14.346h-2.184l-7.26-11.578v11.578h-1.855V94.396z"/>
	<path fill="#FFFFFF" d="M502.042,94.396h10.41v1.758h-8.516v4.355h7.871v1.66h-7.871v4.863h8.662v1.709h-10.557V94.396z"/>
	<path fill="#FFFFFF" d="M527.419,94.396h6.42c1.269,0,2.293,0.359,3.073,1.078c0.78,0.72,1.171,1.73,1.171,3.033
		c0,1.119-0.349,2.094-1.045,2.924s-1.762,1.246-3.196,1.246h-4.479v6.064h-1.943V94.396z M534.958,96.368
		c-0.427-0.202-1.012-0.303-1.755-0.303h-3.84v4.971h3.84c0.865,0,1.568-0.186,2.108-0.557s0.81-1.025,0.81-1.963
		C536.121,97.462,535.733,96.745,534.958,96.368z"/>
	<path fill="#FFFFFF" d="M544.047,94.396h6.521c1.074,0,1.96,0.159,2.656,0.479c1.323,0.611,1.985,1.741,1.985,3.389
		c0,0.859-0.178,1.562-0.532,2.109s-0.852,0.986-1.489,1.318c0.56,0.228,0.981,0.527,1.265,0.898s0.441,0.973,0.474,1.807
		l0.068,1.924c0.02,0.547,0.065,0.953,0.137,1.221c0.117,0.455,0.325,0.748,0.625,0.879v0.322h-2.383
		c-0.065-0.124-0.117-0.283-0.156-0.479s-0.071-0.573-0.098-1.133l-0.117-2.393c-0.044-0.938-0.383-1.566-1.016-1.885
		c-0.36-0.176-0.927-0.264-1.698-0.264h-4.298v6.152h-1.943V94.396z M550.359,100.968c0.887,0,1.588-0.183,2.104-0.547
		c0.517-0.365,0.774-1.022,0.774-1.973c0-1.022-0.361-1.719-1.083-2.09c-0.386-0.195-0.901-0.293-1.548-0.293h-4.615v4.902H550.359z
		"/>
	<path fill="#FFFFFF" d="M561.936,94.396h1.963v14.346h-1.963V94.396z"/>
	<path fill="#FFFFFF" d="M570.293,94.396h2.289l7.154,11.59v-11.59h1.855v14.346h-2.184l-7.26-11.578v11.578h-1.855V94.396z"/>
	<path fill="#FFFFFF" d="M598.407,94.396v1.709h-4.834v12.637h-1.963V96.104h-4.834v-1.709H598.407z"/>
	<path fill="#FFFFFF" d="M604.703,104.112c0.044,0.813,0.229,1.475,0.555,1.982c0.621,0.95,1.716,1.426,3.283,1.426
		c0.702,0,1.342-0.104,1.919-0.312c1.116-0.404,1.675-1.127,1.675-2.168c0-0.781-0.236-1.338-0.71-1.67
		c-0.479-0.326-1.229-0.609-2.251-0.85l-1.883-0.439c-1.229-0.287-2.101-0.603-2.611-0.947c-0.883-0.6-1.324-1.494-1.324-2.686
		c0-1.289,0.434-2.348,1.302-3.174c0.868-0.827,2.097-1.24,3.688-1.24c1.464,0,2.707,0.362,3.729,1.088
		c1.023,0.727,1.535,1.887,1.535,3.482h-1.826c-0.094-0.769-0.293-1.357-0.6-1.768c-0.567-0.749-1.532-1.123-2.893-1.123
		c-1.099,0-1.889,0.24-2.369,0.723c-0.48,0.481-0.721,1.041-0.721,1.68c0,0.703,0.284,1.217,0.852,1.543
		c0.372,0.208,1.214,0.469,2.526,0.781l1.949,0.459c0.94,0.221,1.665,0.523,2.176,0.908c0.884,0.67,1.325,1.644,1.325,2.92
		c0,1.588-0.563,2.725-1.69,3.408s-2.437,1.025-3.929,1.025c-1.739,0-3.102-0.456-4.086-1.367c-0.984-0.905-1.467-2.133-1.447-3.682
		H604.703z"/>
	<path fill="#FFFFFF" d="M630.08,104.112c0.044,0.813,0.229,1.475,0.555,1.982c0.621,0.95,1.716,1.426,3.283,1.426
		c0.702,0,1.342-0.104,1.919-0.312c1.116-0.404,1.675-1.127,1.675-2.168c0-0.781-0.236-1.338-0.71-1.67
		c-0.479-0.326-1.229-0.609-2.251-0.85l-1.883-0.439c-1.229-0.287-2.101-0.603-2.611-0.947c-0.883-0.6-1.324-1.494-1.324-2.686
		c0-1.289,0.434-2.348,1.302-3.174c0.868-0.827,2.097-1.24,3.688-1.24c1.464,0,2.707,0.362,3.729,1.088
		c1.023,0.727,1.535,1.887,1.535,3.482h-1.826c-0.094-0.769-0.293-1.357-0.6-1.768c-0.567-0.749-1.532-1.123-2.893-1.123
		c-1.099,0-1.889,0.24-2.369,0.723c-0.48,0.481-0.721,1.041-0.721,1.68c0,0.703,0.284,1.217,0.852,1.543
		c0.372,0.208,1.214,0.469,2.526,0.781l1.949,0.459c0.94,0.221,1.665,0.523,2.176,0.908c0.884,0.67,1.325,1.644,1.325,2.92
		c0,1.588-0.563,2.725-1.69,3.408s-2.437,1.025-3.929,1.025c-1.739,0-3.102-0.456-4.086-1.367c-0.984-0.905-1.467-2.133-1.447-3.682
		H630.08z"/>
	<path fill="#FFFFFF" d="M645.83,94.396h1.963v14.346h-1.963V94.396z"/>
	<path fill="#FFFFFF" d="M654.186,94.396h2.289l7.154,11.59v-11.59h1.855v14.346h-2.184l-7.26-11.578v11.578h-1.855V94.396z"/>
	<path fill="#FFFFFF" d="M682.016,95.44c0.991,0.957,1.541,2.044,1.65,3.262h-1.895c-0.211-0.925-0.632-1.657-1.261-2.197
		c-0.63-0.541-1.515-0.811-2.652-0.811c-1.388,0-2.508,0.496-3.361,1.49s-1.28,2.517-1.28,4.568c0,1.682,0.386,3.045,1.156,4.092
		c0.771,1.045,1.92,1.568,3.448,1.568c1.407,0,2.479-0.551,3.214-1.65c0.39-0.58,0.681-1.342,0.873-2.285h1.895
		c-0.167,1.51-0.721,2.776-1.66,3.799c-1.126,1.23-2.646,1.846-4.557,1.846c-1.647,0-3.031-0.506-4.15-1.516
		c-1.474-1.335-2.211-3.396-2.211-6.186c0-2.117,0.554-3.854,1.66-5.208c1.196-1.472,2.848-2.208,4.951-2.208
		C679.632,94.005,681.025,94.483,682.016,95.44z"/>
	<path fill="#FFFFFF" d="M689.739,94.396h10.41v1.758h-8.516v4.355h7.871v1.66h-7.871v4.863h8.662v1.709h-10.557V94.396z"/>
	<path fill="#FFFFFF" d="M715.321,98.839v-1.348c1.27-0.124,2.155-0.331,2.656-0.621c0.501-0.289,0.876-0.975,1.123-2.055h1.387
		v13.926h-1.875v-9.902H715.321z"/>
	<path fill="#FFFFFF" d="M730.425,105.353c0.052,0.97,0.427,1.641,1.123,2.012c0.358,0.195,0.762,0.293,1.211,0.293
		c0.84,0,1.556-0.351,2.148-1.051c0.593-0.699,1.013-2.12,1.26-4.262c-0.391,0.618-0.874,1.053-1.45,1.303
		c-0.576,0.251-1.196,0.377-1.86,0.377c-1.348,0-2.414-0.42-3.198-1.259s-1.177-1.919-1.177-3.239c0-1.268,0.388-2.383,1.162-3.346
		s1.917-1.443,3.428-1.443c2.038,0,3.444,0.917,4.219,2.752c0.43,1.008,0.645,2.271,0.645,3.786c0,1.711-0.257,3.228-0.771,4.548
		c-0.853,2.199-2.298,3.299-4.336,3.299c-1.367,0-2.405-0.358-3.115-1.074c-0.71-0.717-1.064-1.615-1.064-2.695H730.425z
		 M735,101.794c0.576-0.459,0.864-1.26,0.864-2.404c0-1.026-0.259-1.792-0.776-2.295c-0.518-0.504-1.177-0.756-1.978-0.756
		c-0.859,0-1.541,0.287-2.046,0.862s-0.757,1.345-0.757,2.306c0,0.91,0.222,1.634,0.664,2.17s1.149,0.805,2.119,0.805
		C733.788,102.481,734.424,102.252,735,101.794z"/>
	<path fill="#FFFFFF" d="M744.037,100.558c-0.515-0.521-0.771-1.198-0.771-2.031c0-1.042,0.377-1.938,1.132-2.686
		c0.754-0.749,1.824-1.123,3.209-1.123c1.34,0,2.39,0.353,3.15,1.059c0.761,0.707,1.142,1.532,1.142,2.477
		c0,0.872-0.222,1.578-0.664,2.119c-0.247,0.306-0.631,0.605-1.151,0.898c0.582,0.267,1.039,0.572,1.372,0.918
		c0.621,0.65,0.932,1.497,0.932,2.539c0,1.23-0.413,2.273-1.24,3.129c-0.827,0.856-1.995,1.285-3.506,1.285
		c-1.36,0-2.512-0.37-3.452-1.109c-0.94-0.738-1.411-1.811-1.411-3.217c0-0.827,0.202-1.542,0.605-2.145
		c0.403-0.602,1.002-1.062,1.797-1.381C744.691,101.081,744.31,100.837,744.037,100.558z M749.706,106.88
		c0.537-0.439,0.806-1.095,0.806-1.967c0-0.905-0.276-1.592-0.83-2.061s-1.263-0.703-2.129-0.703c-0.84,0-1.525,0.238-2.056,0.717
		s-0.796,1.142-0.796,1.988c0,0.729,0.242,1.358,0.728,1.889c0.485,0.531,1.235,0.797,2.251,0.797
		C748.493,107.54,749.168,107.319,749.706,106.88z M749.379,99.965c0.436-0.435,0.653-0.951,0.653-1.552
		c0-0.521-0.208-1.001-0.624-1.438c-0.416-0.437-1.049-0.655-1.9-0.655c-0.845,0-1.455,0.219-1.832,0.655
		c-0.377,0.438-0.565,0.95-0.565,1.536c0,0.66,0.243,1.176,0.73,1.547c0.488,0.372,1.062,0.559,1.726,0.559
		C748.34,100.616,748.944,100.399,749.379,99.965z"/>
	<path fill="#FFFFFF" d="M765.832,96.993c0.625,1.152,0.938,2.73,0.938,4.736c0,1.9-0.283,3.473-0.85,4.717
		c-0.82,1.783-2.161,2.676-4.023,2.676c-1.68,0-2.93-0.729-3.75-2.188c-0.684-1.218-1.025-2.852-1.025-4.902
		c0-1.589,0.205-2.953,0.615-4.092c0.769-2.123,2.158-3.184,4.17-3.184C763.715,94.757,765.024,95.502,765.832,96.993z
		 M764.063,106.31c0.541-0.808,0.812-2.312,0.812-4.512c0-1.589-0.195-2.896-0.587-3.922s-1.151-1.537-2.279-1.537
		c-1.037,0-1.795,0.486-2.274,1.459c-0.479,0.974-0.719,2.408-0.719,4.303c0,1.426,0.153,2.571,0.46,3.438
		c0.47,1.321,1.271,1.982,2.406,1.982C762.794,107.521,763.521,107.116,764.063,106.31z"/>
</g>
</svg>
